<svg width="35" height="35" viewBox="0 0 35 35" fill="none" xmlns="http://www.w3.org/2000/svg">
<path fill-rule="evenodd" clip-rule="evenodd" d="M17.5 31.5C21.213 31.5 24.774 30.025 27.3995 27.3995C30.025 24.774 31.5 21.213 31.5 17.5C31.5 13.787 30.025 10.226 27.3995 7.60051C24.774 4.975 21.213 3.5 17.5 3.5C13.787 3.5 10.226 4.975 7.60051 7.60051C4.975 10.226 3.5 13.787 3.5 17.5C3.5 21.213 4.975 24.774 7.60051 27.3995C10.226 30.025 13.787 31.5 17.5 31.5ZM18.7372 13.4872C19.056 13.1572 19.2324 12.7151 19.2284 12.2563C19.2244 11.7975 19.0404 11.3585 18.7159 11.0341C18.3915 10.7096 17.9525 10.5256 17.4937 10.5216C17.0349 10.5176 16.5928 10.694 16.2628 11.0128L11.0128 16.2628C10.6847 16.5909 10.5004 17.036 10.5004 17.5C10.5004 17.964 10.6847 18.4091 11.0128 18.7372L16.2628 23.9872C16.5928 24.306 17.0349 24.4824 17.4937 24.4784C17.9525 24.4744 18.3915 24.2904 18.7159 23.9659C19.0404 23.6415 19.2244 23.2025 19.2284 22.7437C19.2324 22.2849 19.056 21.8428 18.7372 21.5128L16.4745 19.25H22.75C23.2141 19.25 23.6592 19.0656 23.9874 18.7374C24.3156 18.4092 24.5 17.9641 24.5 17.5C24.5 17.0359 24.3156 16.5908 23.9874 16.2626C23.6592 15.9344 23.2141 15.75 22.75 15.75H16.4745L18.7372 13.4872Z" fill="#2E302F"/>
</svg>
