<svg width="34" height="34" viewBox="0 0 34 34" fill="none" xmlns="http://www.w3.org/2000/svg">
<path d="M4.25 17L7.08333 14.1667M7.08333 14.1667L17 4.25L26.9167 14.1667M7.08333 14.1667V28.3333C7.08333 28.7091 7.23259 29.0694 7.49827 29.3351C7.76394 29.6007 8.12428 29.75 8.5 29.75H12.75M26.9167 14.1667L29.75 17M26.9167 14.1667V28.3333C26.9167 28.7091 26.7674 29.0694 26.5017 29.3351C26.2361 29.6007 25.8757 29.75 25.5 29.75H21.25M12.75 29.75C13.1257 29.75 13.4861 29.6007 13.7517 29.3351C14.0174 29.0694 14.1667 28.7091 14.1667 28.3333V22.6667C14.1667 22.2909 14.3159 21.9306 14.5816 21.6649C14.8473 21.3993 15.2076 21.25 15.5833 21.25H18.4167C18.7924 21.25 19.1527 21.3993 19.4184 21.6649C19.6841 21.9306 19.8333 22.2909 19.8333 22.6667V28.3333C19.8333 28.7091 19.9826 29.0694 20.2483 29.3351C20.5139 29.6007 20.8743 29.75 21.25 29.75M12.75 29.75H21.25" stroke="black" stroke-width="2" stroke-linecap="round" stroke-linejoin="round"/>
</svg>
