<svg width="126" height="36" viewBox="0 0 126 36" fill="none" xmlns="http://www.w3.org/2000/svg">
<path d="M58.2284 7.99856L56.7496 5.7075L57.8518 4.86579C58.1463 4.65342 58.3788 4.3186 58.3989 3.96827C58.3989 3.82566 58.3648 3.6815 58.3168 3.55129C58.2625 3.40713 58.1804 3.29088 58.0703 3.18857C57.8456 2.99016 57.5231 2.85995 57.1744 2.92195C56.9077 3.01031 56.6613 3.14827 56.4427 3.31258L53.9315 5.20681V1.84772C53.9315 1.547 53.8075 1.28038 53.6169 1.08817C53.4184 0.895957 53.1518 0.773499 52.8573 0.773499C52.5566 0.773499 52.2822 0.895957 52.09 1.08817C51.8993 1.28038 51.7831 1.547 51.7831 1.84772V8.65581C51.7831 8.95653 51.8993 9.2247 52.09 9.41536C52.2822 9.61377 52.5566 9.73003 52.8573 9.73003C53.1518 9.73003 53.4184 9.61377 53.6169 9.41536C53.8075 9.2247 53.9315 8.95653 53.9315 8.65581V7.78774C53.9997 7.73194 54.0679 7.67769 54.1439 7.62343C54.2121 7.57538 54.2943 7.51338 54.3826 7.44517C54.5609 7.31496 54.7872 7.15065 55.0941 6.91193L56.5993 9.2712C56.8194 9.54557 57.1465 9.74398 57.4828 9.70988C57.8998 9.70368 58.2346 9.42311 58.385 9.08054C58.5369 8.73796 58.509 8.32098 58.2284 7.99856Z" fill="#2E302F"/>
<path d="M62.5921 9.73005C63.1192 9.73005 63.7206 9.62775 64.1857 9.42313C64.6522 9.21697 64.9809 8.89609 64.9731 8.45741C64.9731 8.05438 64.7127 7.80017 64.4058 7.67771C64.0973 7.5537 63.7206 7.5754 63.4741 7.69166C63.2215 7.87612 62.927 7.98618 62.6061 7.98618C62.2837 7.98618 61.9969 7.84822 61.7783 7.6436C61.5582 7.43744 61.4017 7.17082 61.3738 6.898H65.0491C65.356 6.898 65.6025 6.8639 65.7668 6.75384C65.9311 6.64378 66.0132 6.46707 66.0132 6.17255C66.0132 5.23473 65.6304 4.41318 65.0212 3.83189C64.412 3.25679 63.5563 2.90802 62.62 2.90802C61.6822 2.90802 60.8204 3.2847 60.1972 3.89389C59.5679 4.50308 59.1772 5.35874 59.1772 6.32291C59.1772 7.26073 59.5601 8.11484 60.1833 8.73178C60.8064 9.34718 61.6621 9.73005 62.5921 9.73005ZM62.62 4.62554C62.9006 4.62554 63.2013 4.72785 63.4261 4.91386C63.6524 5.09832 63.8245 5.35099 63.8508 5.64551H61.3474C61.3939 5.35099 61.5582 5.09832 61.7907 4.91386C62.0248 4.72785 62.3178 4.62554 62.62 4.62554Z" fill="#2E302F"/>
<path d="M73.3674 1.04788C73.1752 0.855669 72.9023 0.73941 72.6016 0.73941C72.3071 0.73941 72.0405 0.855669 71.8483 1.04788C71.6499 1.2463 71.5274 1.51292 71.5274 1.81364V3.43505C71.0686 3.10023 70.5555 2.90801 70.0486 2.90801C69.1108 2.90801 68.3109 3.29089 67.7436 3.91403C67.1747 4.53718 66.8461 5.38509 66.8461 6.32291C66.8461 7.26072 67.1747 8.11483 67.7436 8.73178C68.3109 9.34717 69.1108 9.7378 70.0486 9.7378C70.9446 9.7378 71.6638 9.38127 72.1629 8.80618L72.225 8.95654C72.3893 9.46963 72.676 9.7378 73.0868 9.7378C73.4774 9.7378 73.6759 9.53163 73.6759 9.14876V1.81364C73.6759 1.51292 73.5596 1.2463 73.3674 1.04788ZM70.261 7.6498C69.9044 7.6498 69.5898 7.49944 69.365 7.25297C69.1387 7.01425 69.0023 6.67788 69.0023 6.32291C69.0023 5.96638 69.1387 5.63156 69.365 5.39284C69.5898 5.15257 69.9044 5.00221 70.261 5.00221C70.6159 5.00221 70.9384 5.15257 71.1647 5.39284C71.3832 5.63156 71.5274 5.96638 71.5274 6.32291C71.5274 6.67788 71.3832 7.01425 71.1647 7.25297C70.9384 7.49944 70.6159 7.6498 70.261 7.6498Z" fill="#2E302F"/>
<path d="M81.1929 2.90179C80.7821 2.90179 80.4954 3.16841 80.3311 3.6815L80.3249 3.70165C79.8521 3.20252 79.1886 2.90799 78.3671 2.90799C77.437 2.90799 76.5814 3.29087 75.9582 3.91402C75.3366 4.53716 74.9537 5.38507 74.9537 6.32289C74.9537 7.2607 75.3366 8.11481 75.9582 8.73176C76.5814 9.34715 77.437 9.73778 78.3671 9.73778C79.1747 9.73778 79.8242 9.44946 80.2908 8.97822L80.3311 9.08053C80.4954 9.46961 80.7558 9.73778 81.1666 9.73778C81.5758 9.73778 81.782 9.51146 81.782 9.10068V3.48929C81.782 3.10021 81.5836 2.90179 81.1929 2.90179ZM79.263 7.25295C79.0383 7.49942 78.7236 7.64978 78.3671 7.64978C78.0121 7.64978 77.6974 7.49942 77.4711 7.25295C77.2448 7.01423 77.1084 6.67786 77.1084 6.32289C77.1084 5.96636 77.2448 5.63154 77.4711 5.39282C77.6974 5.15255 78.0121 5.00219 78.3671 5.00219C78.7236 5.00219 79.0383 5.15255 79.263 5.39282C79.4894 5.63154 79.6258 5.96636 79.6258 6.32289C79.6258 6.67786 79.4894 7.01423 79.263 7.25295Z" fill="#2E302F"/>
<path d="M83.3053 1.08198C83.3053 1.3889 83.4293 1.66327 83.6277 1.85393C83.8184 2.04614 84.099 2.1624 84.4074 2.1624C84.7081 2.1624 84.9887 2.04614 85.1871 1.85393C85.3855 1.66327 85.5096 1.3889 85.5096 1.08198C85.5096 0.779705 85.3855 0.506886 85.1871 0.308472C84.9887 0.116258 84.7081 0 84.4074 0C84.099 0 83.8184 0.116258 83.6277 0.308472C83.4293 0.506886 83.3053 0.779705 83.3053 1.08198ZM83.3611 8.65581C83.3611 8.95653 83.4774 9.2247 83.668 9.41537C83.8602 9.61378 84.1269 9.73004 84.4276 9.73004C84.7298 9.73004 84.9965 9.61378 85.1871 9.41537C85.3793 9.2247 85.5018 8.95653 85.5018 8.65581V3.96828C85.5018 3.66756 85.3793 3.40094 85.1871 3.20873C84.9965 3.01806 84.7298 2.89406 84.4276 2.89406C84.1269 2.89406 83.8602 3.01806 83.668 3.20873C83.4774 3.40094 83.3611 3.66756 83.3611 3.96828V8.65581Z" fill="#2E302F"/>
<path d="M13.5759 15.3231C12.683 15.3231 12.0568 15.9044 11.7002 17.0205L11.6847 17.0654C10.6586 15.9788 9.21385 15.3386 7.42813 15.3386C5.40368 15.3386 3.542 16.171 2.1872 17.5258C0.832409 18.8806 0 20.7268 0 22.7667C0 24.8051 0.832409 26.6668 2.1872 28.0061C3.542 29.3454 5.40368 30.1949 7.42813 30.1949C9.1844 30.1949 10.5981 29.5686 11.6103 28.5425L11.7002 28.7657C12.0568 29.6136 12.6225 30.1949 13.5154 30.1949C14.4098 30.1949 14.8563 29.7035 14.8563 28.8106V16.6035C14.8563 15.7556 14.4238 15.3231 13.5759 15.3231ZM9.37816 24.7912C8.88678 25.326 8.20163 25.6546 7.42813 25.6546C6.65307 25.6546 5.96947 25.326 5.47809 24.7912C4.9867 24.2704 4.68908 23.5403 4.68908 22.7667C4.68908 21.9917 4.9867 21.2631 5.47809 20.7423C5.96947 20.2199 6.65307 19.8928 7.42813 19.8928C8.20163 19.8928 8.88678 20.2199 9.37816 20.7423C9.86955 21.2631 10.1672 21.9917 10.1672 22.7667C10.1672 23.5403 9.86955 24.2704 9.37816 24.7912Z" fill="#2E302F"/>
<path d="M31.4218 17.5258C30.1864 16.171 28.4456 15.3386 26.4057 15.3386C25.2447 15.3386 24.158 15.6796 23.1908 16.3059V12.9561C23.1908 12.3019 22.9226 11.7206 22.5056 11.2897C22.0731 10.8727 21.4934 10.6185 20.8532 10.6185C20.1975 10.6185 19.6023 10.8727 19.1853 11.2897C18.7683 11.7206 18.5156 12.3019 18.5156 12.9561V28.9144C18.5156 29.7484 18.9326 30.1948 19.8115 30.1948C20.7044 30.1948 21.3291 29.6135 21.6716 28.4975L21.7755 28.2448C22.9071 29.4492 24.5006 30.1948 26.4057 30.1948C28.4456 30.1948 30.1864 29.3454 31.4218 28.0061C32.6573 26.6668 33.3719 24.8051 33.3719 22.7667C33.3719 20.7268 32.6573 18.8806 31.4218 17.5258ZM27.9093 24.7912C27.4179 25.3259 26.7188 25.6546 25.9438 25.6546C25.1702 25.6546 24.4696 25.3259 23.9937 24.7912C23.5023 24.2703 23.1908 23.5402 23.1908 22.7667C23.1908 21.9917 23.5023 21.2631 23.9937 20.7423C24.4696 20.2199 25.1702 19.8928 25.9438 19.8928C26.7188 19.8928 27.4179 20.2199 27.9093 20.7423C28.4007 21.2631 28.6983 21.9917 28.6983 22.7667C28.6983 23.5402 28.4007 24.2703 27.9093 24.7912Z" fill="#2E302F"/>
<path d="M48.8077 15.3231C47.9148 15.3231 47.2886 15.9044 46.932 17.0205L46.9165 17.0654C45.8904 15.9788 44.4457 15.3386 42.6599 15.3386C40.6355 15.3386 38.7738 16.171 37.419 17.5258C36.0642 18.8806 35.2318 20.7268 35.2318 22.7667C35.2318 24.8051 36.0642 26.6668 37.419 28.0061C38.7738 29.3454 40.6355 30.1949 42.6599 30.1949C44.4162 30.1949 45.8299 29.5686 46.8421 28.5425L46.932 28.7657C47.2886 29.6136 47.8544 30.1949 48.7472 30.1949C49.6416 30.1949 50.0881 29.7035 50.0881 28.8106V16.6035C50.0881 15.7556 49.6556 15.3231 48.8077 15.3231ZM44.61 24.7912C44.1186 25.326 43.4334 25.6546 42.6599 25.6546C41.8849 25.6546 41.2013 25.326 40.7099 24.7912C40.2185 24.2704 39.9209 23.5403 39.9209 22.7667C39.9209 21.9917 40.2185 21.2631 40.7099 20.7423C41.2013 20.2199 41.8849 19.8928 42.6599 19.8928C43.4334 19.8928 44.1186 20.2199 44.61 20.7423C45.1014 21.2631 45.399 21.9917 45.399 22.7667C45.399 23.5403 45.1014 24.2704 44.61 24.7912Z" fill="#2E302F"/>
<path d="M66.6086 17.5118C65.4631 16.171 63.7952 15.3386 61.7568 15.3386C60.9817 15.3386 60.0594 15.4874 59.1216 15.8439C58.3326 16.1415 57.5142 16.588 56.7546 17.2282L56.6802 17.0344C56.2787 15.83 55.7129 15.3386 54.8201 15.3386C53.9567 15.3386 53.5242 15.7695 53.5242 16.6174V27.8418C53.5242 28.4975 53.7768 29.0772 54.1938 29.4942C54.6108 29.9267 55.206 30.1793 55.8617 30.1793C56.5019 30.1793 57.0817 29.9267 57.5142 29.4942C57.9311 29.0772 58.1993 28.4975 58.1993 27.8418V22.7807C58.1993 22.0072 58.5264 21.2926 59.0627 20.7562C59.5835 20.2354 60.2981 19.8928 61.0717 19.8928C61.8452 19.8928 62.5164 20.2199 62.9922 20.7423C63.4542 21.2631 63.7363 21.9917 63.7363 22.7667V27.8573C63.7363 28.4975 64.0045 29.0772 64.4354 29.4942C64.8524 29.9112 65.4337 30.1793 66.0878 30.1793C66.7435 30.1793 67.3232 29.9112 67.7402 29.4802C68.1433 29.0633 68.3959 28.468 68.3959 27.8573V22.7512C68.3959 20.7268 67.7557 18.8511 66.6086 17.5118Z" fill="#2E302F"/>
<path d="M78.9782 31.9062C78.4419 31.9062 78.0249 31.8473 77.6684 31.7729C77.3103 31.7124 76.9987 31.6535 76.6406 31.6085C76.1198 31.593 75.6439 31.7729 75.2858 32.0844C74.9293 32.3976 74.7061 32.8595 74.7061 33.3943C74.7061 35.166 76.3275 36 79.0526 36C80.6756 36 82.3869 35.4497 83.6673 34.2577C84.9477 33.0672 85.8111 31.2365 85.8111 28.6308V17.2886C85.8111 16.7972 85.7212 16.3059 85.498 15.9478C85.2592 15.5913 84.9167 15.3525 84.4408 15.3525C83.6068 15.3525 82.8922 16.1571 82.7 17.363C82.1482 16.8267 81.4196 16.3198 80.5857 15.9478C79.7378 15.5758 78.7999 15.3386 77.8311 15.3386C75.8067 15.3386 74.0799 16.171 72.8739 17.5258C71.6694 18.8806 70.9548 20.7268 70.9548 22.7667C70.9548 24.8051 71.6694 26.6668 72.8739 28.0061C74.0799 29.3454 75.8067 30.1948 77.8311 30.1948C78.6651 30.1948 79.4541 29.9716 80.1098 29.643C80.75 29.3159 81.2259 28.885 81.4196 28.4525C81.494 29.4802 81.3003 30.3282 80.8833 30.9234C80.4663 31.5341 79.8122 31.8907 78.9782 31.9062ZM75.6439 22.7667C75.6439 21.9917 75.9105 21.2631 76.388 20.7423C76.8484 20.2199 77.504 19.8928 78.2776 19.8928C79.0526 19.8928 79.7517 20.2199 80.2725 20.7423C80.7934 21.2771 81.122 21.9917 81.122 22.7667C81.122 23.5402 80.8089 24.2703 80.288 24.7912C79.7672 25.326 79.0526 25.6546 78.2776 25.6546C77.504 25.6546 76.8484 25.326 76.388 24.7912C75.9105 24.2703 75.6439 23.5402 75.6439 22.7667Z" fill="#2E302F"/>
<mask id="mask0_26_1336" style="mask-type:luminance" maskUnits="userSpaceOnUse" x="90" y="0" width="36" height="34">
<path d="M90.9713 0.886658H125.495V33.6529H90.9713V0.886658Z" fill="white"/>
</mask>
<g mask="url(#mask0_26_1336)">
<mask id="mask1_26_1336" style="mask-type:luminance" maskUnits="userSpaceOnUse" x="91" y="0" width="35" height="34">
<path d="M100.106 0.886658V33.625C100.202 33.6327 100.298 33.6327 100.393 33.6327H116.167V0.886658H100.106ZM118.635 0.886658H116.167V33.625H116.221C120.211 33.625 123.714 30.3697 124.001 26.3937L125.353 8.11172C125.647 4.14344 122.623 0.886658 118.635 0.886658ZM97.9809 0.886658C93.9909 0.886658 90.9682 4.14344 91.2627 8.11792L92.6129 26.3999C92.9012 30.2798 96.2463 33.4746 100.112 33.625V0.886658H97.9809Z" fill="white"/>
</mask>
<g mask="url(#mask1_26_1336)">
<path d="M91.2427 0.886658H125.379V33.6529H91.2427V0.886658Z" fill="#2E302F"/>
</g>
</g>
<mask id="mask2_26_1336" style="mask-type:luminance" maskUnits="userSpaceOnUse" x="92" y="2" width="33" height="31">
<path d="M92.2362 2.08334H124.305V32.4546H92.2362V2.08334Z" fill="white"/>
</mask>
<g mask="url(#mask2_26_1336)">
<mask id="mask3_26_1336" style="mask-type:luminance" maskUnits="userSpaceOnUse" x="92" y="2" width="33" height="31">
<path d="M100.705 2.08334V32.4298C100.794 32.436 100.883 32.436 100.973 32.436H115.592V2.08334H100.705ZM117.88 2.08334H115.592V32.4298H115.643C119.341 32.4298 122.587 29.4118 122.854 25.7256L124.107 8.77982C124.379 5.10141 121.577 2.08334 117.88 2.08334ZM98.7359 2.08334C95.0373 2.08334 92.2363 5.10141 92.5091 8.78602L93.76 25.7318C94.0266 29.3281 97.1284 32.2888 100.712 32.4298V2.08334H98.7359Z" fill="white"/>
</mask>
<g mask="url(#mask3_26_1336)">
<path d="M92.4889 2.08334H124.131V32.4546H92.4889V2.08334Z" fill="white"/>
</g>
</g>
<mask id="mask4_26_1336" style="mask-type:luminance" maskUnits="userSpaceOnUse" x="93" y="2" width="31" height="30">
<path d="M93.0098 2.81345H123.511V31.723H93.0098V2.81345Z" fill="white"/>
</mask>
<g mask="url(#mask4_26_1336)">
<mask id="mask5_26_1336" style="mask-type:luminance" maskUnits="userSpaceOnUse" x="93" y="2" width="31" height="30">
<path d="M101.072 2.81345V31.6982C101.156 31.7044 101.241 31.7044 101.325 31.7044H115.241V2.81345H101.072ZM117.419 2.81345H115.241V31.6982H115.289C118.81 31.6982 121.901 28.8258 122.155 25.3179L123.345 9.1875C123.606 5.6858 120.938 2.81345 117.419 2.81345ZM99.1962 2.81345C95.6759 2.81345 93.0097 5.6858 93.2686 9.1937L94.4606 25.3241C94.7148 28.7468 97.6662 31.5649 101.076 31.6982V2.81345H99.1962Z" fill="white"/>
</mask>
<g mask="url(#mask5_26_1336)">
<path d="M93.2515 2.81345H123.37V31.723H93.2515V2.81345Z" fill="#2E302F"/>
</g>
</g>
<mask id="mask6_26_1336" style="mask-type:luminance" maskUnits="userSpaceOnUse" x="99" y="15" width="6" height="4">
<path d="M99.0505 15.0081H104.011V18.5641H99.0505V15.0081Z" fill="white"/>
</mask>
<g mask="url(#mask6_26_1336)">
<mask id="mask7_26_1336" style="mask-type:luminance" maskUnits="userSpaceOnUse" x="99" y="15" width="6" height="4">
<path d="M99.0831 18.2602C99.0614 18.1083 99.0505 17.9549 99.0505 17.803C99.0505 16.2699 100.148 15.0081 101.531 15.0081C102.912 15.0081 104.011 16.2699 104.011 17.803C104.011 17.9549 103.998 18.1083 103.977 18.2602C103.919 18.6664 103.335 18.6664 103.276 18.2602C103.13 17.2604 102.385 16.5334 101.531 16.5334C100.675 16.5334 99.9294 17.2604 99.7837 18.2602C99.7248 18.6664 99.1404 18.6664 99.0831 18.2602Z" fill="white"/>
</mask>
<g mask="url(#mask7_26_1336)">
<path d="M95.507 22.1185H107.553V11.4538H95.507V22.1185Z" fill="white"/>
</g>
</g>
<mask id="mask8_26_1336" style="mask-type:luminance" maskUnits="userSpaceOnUse" x="112" y="15" width="6" height="4">
<path d="M112.513 15.0081H117.474V18.5641H112.513V15.0081Z" fill="white"/>
</mask>
<g mask="url(#mask8_26_1336)">
<mask id="mask9_26_1336" style="mask-type:luminance" maskUnits="userSpaceOnUse" x="112" y="15" width="6" height="4">
<path d="M112.547 18.2602C112.524 18.1083 112.513 17.9549 112.513 17.803C112.513 16.2699 113.612 15.0081 114.993 15.0081C116.375 15.0081 117.474 16.2699 117.474 17.803C117.474 17.9549 117.463 18.1083 117.441 18.2602C117.382 18.6664 116.799 18.6664 116.74 18.2602C116.593 17.2604 115.849 16.5334 114.993 16.5334C114.139 16.5334 113.394 17.2604 113.248 18.2602C113.189 18.6664 112.605 18.6664 112.547 18.2602Z" fill="white"/>
</mask>
<g mask="url(#mask9_26_1336)">
<path d="M108.971 22.1185H121.017V11.4538H108.971V22.1185Z" fill="white"/>
</g>
</g>
<mask id="mask10_26_1336" style="mask-type:luminance" maskUnits="userSpaceOnUse" x="100" y="19" width="16" height="9">
<path d="M100.892 19.3376H115.575V27.8059H100.892V19.3376Z" fill="white"/>
</mask>
<g mask="url(#mask10_26_1336)">
<mask id="mask11_26_1336" style="mask-type:luminance" maskUnits="userSpaceOnUse" x="101" y="19" width="15" height="9">
<path d="M110.269 25.4373C110.625 24.5212 110.74 23.3648 110.599 21.9635C110.576 21.7512 110.585 21.5403 110.621 21.3357C110.836 20.0553 112.047 19.1935 113.319 19.4136C113.502 19.4446 113.682 19.4942 113.854 19.564C114.947 19.9964 115.617 21.0986 115.517 22.2596L115.508 22.3123C115.486 22.4038 115.462 22.4968 115.431 22.5851C115.429 22.6099 115.423 22.6347 115.415 22.6595C114.507 25.6869 111.6 27.8059 108.261 27.8059C104.924 27.8059 102.017 25.6869 101.109 22.6595C100.99 22.2658 101.525 22.0178 101.746 22.365C103.047 24.3879 105.519 25.6729 108.261 25.6729C108.951 25.6729 109.627 25.5923 110.269 25.4373ZM113.594 20.2212C113.467 20.1716 113.336 20.1359 113.2 20.1127C112.312 19.9608 111.47 20.5607 111.318 21.452C111.293 21.5992 111.287 21.7465 111.304 21.8907C111.512 23.9787 111.194 25.6171 110.332 26.7875C112.55 26.107 114.271 24.3569 114.814 22.1712C114.876 21.3326 114.384 20.5374 113.594 20.2212Z" fill="white"/>
</mask>
<g mask="url(#mask11_26_1336)">
<path d="M97.55 31.3618H119.072V15.822H97.55V31.3618Z" fill="white"/>
</g>
</g>
</svg>
