<svg width="34" height="34" viewBox="0 0 34 34" fill="none" xmlns="http://www.w3.org/2000/svg">
<path d="M22.6667 9.91667C22.6667 11.4196 22.0697 12.8609 21.007 13.9236C19.9443 14.9863 18.5029 15.5833 17 15.5833C15.4971 15.5833 14.0558 14.9863 12.9931 13.9236C11.9304 12.8609 11.3334 11.4196 11.3334 9.91667C11.3334 8.41377 11.9304 6.97243 12.9931 5.90973C14.0558 4.84702 15.4971 4.25 17 4.25C18.5029 4.25 19.9443 4.84702 21.007 5.90973C22.0697 6.97243 22.6667 8.41377 22.6667 9.91667ZM17 19.8333C14.37 19.8333 11.8476 20.8781 9.9879 22.7379C8.12816 24.5976 7.08337 27.1199 7.08337 29.75H26.9167C26.9167 27.1199 25.8719 24.5976 24.0122 22.7379C22.1524 20.8781 19.6301 19.8333 17 19.8333Z" stroke="black" stroke-width="2" stroke-linecap="round" stroke-linejoin="round"/>
</svg>
